<svg width="146" height="29" viewBox="0 0 146 29" fill="none" xmlns="http://www.w3.org/2000/svg">
<path d="M22.891 19.5007C22.4089 18.7994 21.7146 17.8414 20.7889 16.7296C19.8824 15.6177 18.7638 14.3689 17.5102 13.0689C16.8931 12.4189 16.2374 11.7688 15.5431 11.1017C15.2731 10.8451 14.9838 10.5714 14.7138 10.3148C15.0031 10.0583 15.2731 9.80167 15.5624 9.52798C16.2567 8.87796 16.9124 8.22793 17.5488 7.59501C18.8217 6.31207 19.9403 5.08045 20.866 3.96857C21.7917 2.87379 22.5246 1.91586 23.0067 1.21452C23.4889 0.530283 23.7396 0.102636 23.7396 0.102636C23.7396 0.102636 23.2575 0.325011 22.486 0.752658C21.6953 1.1803 20.6153 1.81322 19.3617 2.6172C18.1081 3.42117 16.7002 4.41332 15.2345 5.5252C14.5016 6.07259 13.7688 6.65419 13.0166 7.27C12.7273 7.50948 12.4187 7.76607 12.1295 8.00555C11.8402 7.74896 11.5509 7.50948 11.2423 7.25289C10.5094 6.63708 9.77656 6.05548 9.06298 5.49099C7.61653 4.362 6.22794 3.36986 4.97435 2.54878C3.74005 1.72769 2.66003 1.07767 1.86931 0.650021C1.09787 0.222374 0.615717 0 0.615717 0C0.615717 0 0.866435 0.427647 1.34859 1.11188C1.83073 1.81322 2.54432 2.77116 3.45076 3.88304C4.3572 4.99492 5.47579 6.24365 6.72938 7.5437C7.34653 8.19372 8.00225 8.84374 8.69654 9.51087C8.96655 9.78457 9.25584 10.0412 9.52584 10.2977C9.23655 10.5543 8.96655 10.8109 8.67726 11.0675C7.98296 11.7175 7.32724 12.3676 6.6908 13.0005C5.41793 14.2834 4.29934 15.515 3.37361 16.6269C2.44788 17.7217 1.71502 18.6796 1.23287 19.381C0.750718 20.0652 0.5 20.4928 0.5 20.4928C0.5 20.4928 0.98215 20.2705 1.75359 19.8428C2.54431 19.4152 3.62433 18.7994 4.87792 17.9783C6.13151 17.1743 7.53939 16.1822 9.00512 15.0703C9.73799 14.5229 10.4709 13.9413 11.223 13.3255C11.5123 13.086 11.8209 12.8294 12.1102 12.5899C12.3995 12.8465 12.6887 13.086 12.978 13.3426C13.7109 13.9584 14.4438 14.54 15.1573 15.1045C16.6038 16.2335 17.9924 17.2256 19.246 18.0467C20.4803 18.8678 21.5603 19.5178 22.351 19.9455C23.1225 20.3731 23.6046 20.5955 23.6046 20.5955C23.6046 20.5955 23.3732 20.202 22.891 19.5007Z" fill="url(#paint0_linear)"/>
<path d="M21.9075 10.0924C21.3289 9.97269 20.4803 9.81874 19.4775 9.68189C18.4746 9.54504 17.2982 9.4253 16.0446 9.35688C15.4274 9.32267 14.7717 9.28846 14.116 9.27135C13.846 9.25425 13.5952 9.25424 13.3252 9.25424C13.3252 9.01476 13.306 8.77528 13.306 8.5529C13.2867 7.9713 13.2481 7.3897 13.2095 6.84231C13.1131 5.73043 12.9781 4.68698 12.8431 3.79747C12.6888 2.90797 12.5152 2.17241 12.3802 1.64213C12.2452 1.12895 12.1488 0.821045 12.1488 0.821045C12.1488 0.821045 12.0524 1.11185 11.9174 1.64213C11.7824 2.15531 11.6088 2.90797 11.4545 3.79747C11.3002 4.68698 11.1652 5.73043 11.0881 6.84231C11.0495 7.3897 11.0109 7.9713 10.9916 8.5529C10.9723 8.79238 10.9724 9.03187 10.9724 9.25424C10.7023 9.25424 10.4323 9.27135 10.1816 9.27135C9.5259 9.28846 8.87018 9.32267 8.25303 9.35688C6.99944 9.44241 5.82299 9.56215 4.82012 9.68189C3.81724 9.81874 2.98795 9.97269 2.39008 10.0924C1.8115 10.2122 1.46436 10.3148 1.46436 10.3148C1.46436 10.3148 1.79222 10.4003 2.39008 10.5201C2.96866 10.6398 3.81724 10.7938 4.82012 10.9306C5.82299 11.0675 6.99944 11.1872 8.25303 11.2556C8.87018 11.2898 9.5259 11.3241 10.1816 11.3412C10.4516 11.3583 10.7023 11.3583 10.9724 11.3583C10.9724 11.5977 10.9916 11.8372 10.9916 12.0596C11.0109 12.6412 11.0495 13.2228 11.0881 13.7702C11.1845 14.8821 11.3195 15.9255 11.4738 16.815C11.6281 17.7045 11.8016 18.4401 11.9367 18.9704C12.0717 19.4836 12.1874 19.7915 12.1874 19.7915C12.1874 19.7915 12.2838 19.5007 12.4381 18.9704C12.5731 18.4572 12.7467 17.7045 12.9009 16.815C13.0552 15.9255 13.1902 14.8821 13.2674 13.7702C13.306 13.2228 13.3445 12.6412 13.3638 12.0596C13.3831 11.8201 13.3831 11.5977 13.3831 11.3583C13.6531 11.3583 13.9231 11.3412 14.1738 11.3412C14.8295 11.3241 15.4853 11.2898 16.1024 11.2556C17.356 11.1701 18.5325 11.0504 19.5353 10.9135C20.5382 10.7767 21.3675 10.6227 21.9654 10.503C22.5439 10.3832 22.8911 10.2806 22.8911 10.2806C22.8911 10.2806 22.4861 10.2122 21.9075 10.0924Z" fill="url(#paint1_linear)"/>
<path d="M31.7395 14.4606L33.6485 11.788C34.8098 12.9971 36.6234 14.0152 38.9141 14.0152C40.855 14.0152 41.7935 13.1243 41.7935 12.1858C41.7935 9.25863 32.2645 11.2631 32.2645 5.04293C32.2645 2.29079 34.6507 0 38.5483 0C41.1731 0 43.3685 0.795415 45.007 2.3067L43.0503 4.88384C41.714 3.643 39.9164 3.0703 38.2301 3.0703C36.7188 3.0703 35.8757 3.73845 35.8757 4.74067C35.8757 7.36554 45.3888 5.61563 45.3888 11.788C45.3888 14.8106 43.2253 17.1014 38.7551 17.1014C35.5734 17.1014 33.2826 16.0356 31.7395 14.4606Z" fill="#333333"/>
<path d="M50.8295 15.256V21.3648H47.6797V4.80421H50.8295V6.3155C51.7522 5.15419 53.0567 4.50195 54.5203 4.50195C57.5906 4.50195 59.8336 6.79275 59.8336 10.7857C59.8336 14.7787 57.6065 17.0854 54.5203 17.0854C53.1044 17.1013 51.7999 16.4968 50.8295 15.256ZM56.5565 10.7857C56.5565 8.73356 55.3475 7.31772 53.5339 7.31772C52.5158 7.31772 51.3545 7.90633 50.8295 8.68583V12.9334C51.3545 13.681 52.5158 14.3015 53.5339 14.3015C55.3475 14.2856 56.5565 12.8856 56.5565 10.7857Z" fill="#333333"/>
<path d="M69.3468 16.7993V15.5584C68.5354 16.5288 67.1196 17.1015 65.5447 17.1015C63.6357 17.1015 61.3767 15.813 61.3767 13.1245C61.3767 10.3246 63.6357 9.25874 65.5447 9.25874C67.1355 9.25874 68.5514 9.78371 69.3468 10.7223V9.11556C69.3468 7.90653 68.2968 7.11112 66.7219 7.11112C65.4333 7.11112 64.2402 7.58837 63.2221 8.52695L62.029 6.41115C63.4925 5.12258 65.3856 4.51807 67.2628 4.51807C69.999 4.51807 72.4966 5.61574 72.4966 9.05193V16.7993H69.3468V16.7993ZM69.3468 13.9199V12.4245C68.8218 11.7245 67.8355 11.3745 66.8173 11.3745C65.5765 11.3745 64.5584 12.0268 64.5584 13.1881C64.5584 14.3017 65.5765 14.9539 66.8173 14.9539C67.8355 14.9698 68.8218 14.6198 69.3468 13.9199Z" fill="#333333"/>
<path d="M75.6145 16.7991V4.80421H78.7644V6.44277C79.6075 5.37691 81.1029 4.50195 82.5823 4.50195V7.57225C82.3596 7.52453 82.0574 7.49271 81.7074 7.49271C80.6574 7.49271 79.2734 8.08132 78.7484 8.86083V16.7832H75.6145V16.7991Z" fill="#333333"/>
<path d="M92.3184 16.7991L89.1368 12.1857L87.705 13.7288V16.7991H84.5552V0.238525H87.705V10.1494L92.2389 4.82011H96.1046L91.3639 10.2608L96.2478 16.815H92.3184V16.7991Z" fill="#333333"/>
<path d="M102.293 16.7993V2.08409H97.0591V0.254639H109.611V2.08409H104.345V16.7993H102.293Z" fill="#333333"/>
<path d="M108.72 10.7857C108.72 7.31772 111.201 4.50195 114.622 4.50195C118.249 4.50195 120.381 7.33363 120.381 10.9289V11.4062H110.676C110.836 13.6651 112.426 15.5582 115.004 15.5582C116.372 15.5582 117.756 15.0173 118.694 14.0469L119.585 15.256C118.392 16.4491 116.785 17.0854 114.813 17.0854C111.281 17.1013 108.72 14.5401 108.72 10.7857ZM114.606 6.06096C112.045 6.06096 110.788 8.22449 110.692 10.0539H118.567C118.535 8.25631 117.342 6.06096 114.606 6.06096Z" fill="#333333"/>
<path d="M122.703 10.7857C122.703 7.23818 125.105 4.50195 128.685 4.50195C130.864 4.50195 132.153 5.39282 133.075 6.58594L131.834 7.73134C131.039 6.63366 130.021 6.17232 128.78 6.17232C126.219 6.17232 124.628 8.12905 124.628 10.7857C124.628 13.4424 126.219 15.431 128.78 15.431C130.021 15.431 131.039 14.9378 131.834 13.8719L133.075 15.0173C132.153 16.2105 130.864 17.1013 128.685 17.1013C125.105 17.1013 122.703 14.3651 122.703 10.7857Z" fill="#333333"/>
<path d="M143.798 16.7991V8.90855C143.798 6.79274 142.7 6.17232 141.093 6.17232C139.661 6.17232 138.261 7.06319 137.546 8.03359V16.7991H135.684V0.238525H137.546V6.53821C138.389 5.55189 140.027 4.50195 141.841 4.50195C144.354 4.50195 145.659 5.71098 145.659 8.31994V16.7832H143.798V16.7991Z" fill="#333333"/>
<path d="M106.5 27.6612L106.868 27.1947C107.187 27.563 107.727 27.8821 108.415 27.8821C109.299 27.8821 109.569 27.4157 109.569 27.0474C109.569 25.7708 106.672 26.4827 106.672 24.7151C106.672 23.9049 107.384 23.3647 108.366 23.3647C109.127 23.3647 109.691 23.6103 110.109 24.0522L109.741 24.4941C109.372 24.1013 108.857 23.9049 108.317 23.9049C107.727 23.9049 107.31 24.224 107.31 24.6905C107.31 25.7953 110.207 25.157 110.207 26.9983C110.207 27.7103 109.716 28.4468 108.39 28.4468C107.531 28.4468 106.893 28.1277 106.5 27.6612Z" fill="#333333"/>
<path d="M110.894 25.9179C110.894 24.4694 111.876 23.3892 113.325 23.3892C114.773 23.3892 115.755 24.4694 115.755 25.9179C115.755 27.3664 114.773 28.4467 113.325 28.4467C111.876 28.4467 110.894 27.3664 110.894 25.9179ZM115.142 25.9179C115.142 24.764 114.43 23.9293 113.349 23.9293C112.245 23.9293 111.533 24.7886 111.533 25.9179C111.533 27.0473 112.245 27.9066 113.349 27.9066C114.43 27.9066 115.142 27.0473 115.142 25.9179Z" fill="#333333"/>
<path d="M116.738 28.3731V23.4629H117.351V27.833H119.635V28.3731H116.738Z" fill="#333333"/>
<path d="M120.298 26.4581V23.4629H120.911V26.4581C120.911 27.3665 121.402 27.9312 122.311 27.9312C123.219 27.9312 123.71 27.3665 123.71 26.4581V23.4629H124.324V26.4581C124.324 27.6857 123.661 28.4713 122.311 28.4713C120.96 28.4468 120.298 27.6611 120.298 26.4581Z" fill="#333333"/>
<path d="M126.656 28.3731V24.003H125.109V23.4629H128.841V24.003H127.27V28.3731H126.656Z" fill="#333333"/>
<path d="M129.651 28.3731V23.4629H130.265V28.3731H129.651Z" fill="#333333"/>
<path d="M131.198 25.9179C131.198 24.4694 132.18 23.3892 133.629 23.3892C135.077 23.3892 136.059 24.4694 136.059 25.9179C136.059 27.3664 135.077 28.4467 133.629 28.4467C132.18 28.4467 131.198 27.3664 131.198 25.9179ZM135.446 25.9179C135.446 24.764 134.734 23.9293 133.653 23.9293C132.549 23.9293 131.837 24.7886 131.837 25.9179C131.837 27.0473 132.549 27.9066 133.653 27.9066C134.734 27.9066 135.446 27.0473 135.446 25.9179Z" fill="#333333"/>
<path d="M140.528 28.3731L137.655 24.4449V28.3731H137.041V23.4629H137.655L140.478 27.2929V23.4629H141.092V28.3731H140.528Z" fill="#333333"/>
<path d="M141.951 27.6612L142.32 27.1947C142.639 27.563 143.179 27.8821 143.866 27.8821C144.75 27.8821 145.02 27.4157 145.02 27.0474C145.02 25.7708 142.123 26.4827 142.123 24.7151C142.123 23.9049 142.835 23.3647 143.817 23.3647C144.578 23.3647 145.143 23.6103 145.56 24.0522L145.192 24.4941C144.824 24.1013 144.308 23.9049 143.768 23.9049C143.179 23.9049 142.762 24.224 142.762 24.6905C142.762 25.7953 145.659 25.157 145.659 26.9983C145.659 27.7103 145.168 28.4468 143.842 28.4468C142.983 28.4468 142.369 28.1277 141.951 27.6612Z" fill="#333333"/>
<defs>
<linearGradient id="paint0_linear" x1="23.1857" y1="21.6535" x2="3.21615" y2="-4.41231" gradientUnits="userSpaceOnUse">
<stop stop-color="#F12711"/>
<stop offset="1" stop-color="#F5AF19"/>
</linearGradient>
<linearGradient id="paint1_linear" x1="14.2826" y1="22.2906" x2="10.8153" y2="-2.30887" gradientUnits="userSpaceOnUse">
<stop stop-color="#F12711"/>
<stop offset="1" stop-color="#F5AF19"/>
</linearGradient>
</defs>
</svg>
